<svg xmlns="http://www.w3.org/2000/svg" viewBox="0 0 527.07 241.67"><defs><style>.cls-1{fill:#fcfcfc;}</style></defs><g id="Слой_2" data-name="Слой 2"><g id="Слой_2-2" data-name="Слой 2"><path class="cls-1" d="M520.7,78.44c-3.13-15.61-14.6-30-29.94-37.6-17.23-8.5-37.4-8-56.82,1.55-15.93,7.8-26.78,20.21-32.46,37a91.59,91.59,0,0,0,.82-14.27c-.25-16.82-11.89-31.87-30.36-39.28a64.26,64.26,0,0,0-69.88,14.56c-13.75,14-20.72,33.65-20.69,57.91a59.37,59.37,0,0,0-11.72-20.17c-22.49-25.56-61.63-28.05-66-28.25a17.34,17.34,0,0,1-6.25-1.78c-5.08-2.14-11.4-4.8-23.17.82C161,55.3,142.1,73.14,148,94c6.91,24.45,32.29,23.14,41.84,22.65l1.45-.07c6.94-.31,10.12-2.79,12.13-5.42,8.73-.94,21.88,2.37,24.08,7.35,1.1,2.48.86,5.27-.71,8.54-3.66,7.62-12.71,13.84-14.84,14.41-5.55,1-7.82-1.16-12.85-6.59-5.31-5.75-12.58-13.61-27.55-14.65-14.2-1-25.13,3-36.56,13.33-10.22,9.24-18.88,29.2-20,48.48-.36-.73-.73-1.46-1.13-2.18-19.22-34.82-21.35-45.32-19.76-48,.82-1.39,5.84-1.37,9.88-1.34a85,85,0,0,0,11-.46c12.42-1.57,21.9-8.55,25.37-18.69a26.26,26.26,0,0,0-6.57-27.19C121.39,71.82,105.6,70.5,92,72.75c18-12.89,29.74-25.29,20.12-47.53C106.26,11.61,87.59,2.81,68.72,4.74c-13.43,1.38-45.9,10.65-57.49,66.8-8.58,41.53,9.19,77.41,21,101.15,5.23,10.56,9.75,19.68,9.54,24.63-.38,9.38,14,22.39,16.86,24.9l.05.05c11.32,9.52,21.86,13.14,30.76,13.14A29,29,0,0,0,108,229a32.67,32.67,0,0,0,11.26-20.37c5.29,11.52,15.08,19.33,28.73,22.78,10.66,2.69,17.7.76,25.16-1.28,7.28-2,15.54-4.24,30.12-2.6,4.12.46,8.91,2.09,14,3.82,8.08,2.75,17.3,5.89,27.64,5.89A50.81,50.81,0,0,0,270,230.48c8.74-4.83,27.15-20.33,9.42-59.95-4.58-10.26-2.19-16.79.83-25.05,1.77-4.82,3.75-10.28,4.37-16.79.3,1.54.62,3.08,1,4.64,7.36,32.86,22.25,61.85,29.91,72.41a76.32,76.32,0,0,0,13.71,14.62c11.18,9,20.55,11.67,27.68,11.67a27.26,27.26,0,0,0,7.26-1c9.49-2.63,17.08-10.57,21.38-22.34,6.15-16.84-1.61-27.34-6.75-34.3-1.4-1.88-3.13-4.24-3.3-5.25a244.72,244.72,0,0,0-10.84-41.39c16.31-9.52,27.9-19.66,33.63-35.22q-.79,4.78-1.14,9.93c-1.56,23.29,4,47.75,7.7,63.94,1.62,7.13,3.3,14.5,3.07,16.69-1.67,15.35-1.46,22.11,3,29.46,8.64,14.13,19.83,21.81,31.67,21.81.58,0,1.15,0,1.73-.06,11.56-.72,21.62-8.74,27.6-22,8.6-19-.09-58.32-4.31-74.62,19.73-1.48,35.48-8.45,44.81-19.94C520.9,107.33,523.76,93.73,520.7,78.44Z"/><path d="M70.63,10c15.93,0,29.82,8,34.21,18.19,12,27.75-13.31,37.7-43.54,59.61C61.3,87.8,79.52,77,99,77c9.81,0,19.93,2.75,28.19,11,12.75,12.75,7.4,35.78-16.35,38.78a67.84,67.84,0,0,1-8.54.43H98.64c-14.64,0-21.22,1.94,8,55,13.06,23.67,1.2,49.31-20.72,49.31-8.2,0-17.8-3.58-28-12.19,0,0-15.7-13.69-15.38-21.56C43.3,179.55,0,132.68,12.18,73.43,22,25.74,48.32,10,70.63,10m0-10C60.12,0,44.52,2.87,29.9,16.52,16.59,29,7.33,47.42,2.38,71.41c-8.93,43.28,9.27,80,21.32,104.36,4,8.1,9,18.18,8.86,21.56-.25,6.09,2.94,12.69,10.06,20.76a106.7,106.7,0,0,0,8.73,8.75l.14.12C62.8,236.47,74.72,241.49,86,241.49A34.65,34.65,0,0,0,116.41,224c7.9-13.38,7.52-31.26-1-46.66-7.53-13.66-12.72-24-15.84-31.55a60,60,0,0,1-3-8.56l2,0h3.62a79.14,79.14,0,0,0,9.8-.5c14.65-1.86,25.91-10.3,30.12-22.58a32.07,32.07,0,0,0-8-33.21A46.74,46.74,0,0,0,105.84,67.4a53.12,53.12,0,0,0,4.94-5.68c8.28-11.12,9.34-23.39,3.24-37.5S90,0,70.63,0Z"/><path d="M187.37,52.36c6.35,0,9.7,4,16.28,4.28,16.5.75,80.3,10.57,75.25,71.82-1.37,16.68-13.25,25.75-4.75,44.75,15.33,34.25,1.54,47.78-7,52.5a45.15,45.15,0,0,1-22.28,6c-15.93,0-29.28-8.3-40.71-9.59a91,91,0,0,0-10.15-.6c-17.22,0-24.47,5.73-35.38,5.73a35.1,35.1,0,0,1-8.66-1.14c-45.13-11.4-28.1-71.9-10.57-87.74,9.49-8.57,18-12,28.53-12,1.22,0,2.46,0,3.72.13,23.1,1.6,23.66,21.34,38.15,21.34a19.33,19.33,0,0,0,3.35-.31c5.32-1,25.63-16.58,19.5-30.44-3.22-7.29-16.06-10.72-25.82-10.72a32.27,32.27,0,0,0-5.74.47c-1.84.34-1.12,4.69-9.69,5.06-1.9.08-4.52.27-7.51.27-10.42,0-25.3-2.23-30-18.7-5-17.7,12.28-33.12,23.13-38.31,4.32-2.06,7.59-2.79,10.31-2.79m0-10h0a33.82,33.82,0,0,0-14.62,3.77c-14.51,6.93-35.06,26.65-28.44,50.05,2.08,7.33,6.54,15.54,15.95,20.73-9.91,1.47-18.65,6-27.56,14-7.14,6.45-13.53,17.55-17.54,30.45-4.41,14.18-5.22,28.53-2.27,40.38,4.32,17.39,16.62,29.48,34.63,34a44.57,44.57,0,0,0,11.11,1.45c6.18,0,11.26-1.39,16.17-2.73a65.9,65.9,0,0,1,19.21-3,80.58,80.58,0,0,1,9,.54c3.6.4,8.14,1.95,12.94,3.58,8.36,2.85,17.82,6.07,28.89,6.07A54.86,54.86,0,0,0,272,234.46a35.86,35.86,0,0,0,17.15-20.92c3.84-12.2,1.87-27.14-5.86-44.42-3.81-8.52-2-13.4.94-21.5,1.9-5.18,4-11.05,4.65-18.34,1.74-21.15-3.64-39-16-53-23.57-26.79-64.2-29.38-68.75-29.59a13.44,13.44,0,0,1-4.66-1.42,29.63,29.63,0,0,0-12.08-2.87Zm18.49,74h1c8.57,0,15.66,3.1,16.69,4.8.2.45.65,1.58-.37,4-2.44,5.85-9.81,11.44-12.22,12.54a7.78,7.78,0,0,1-1.13.08c-1.89,0-3.14-1.07-7.09-5.33A53.58,53.58,0,0,0,190.47,122l1.37-.07c7.29-.32,11.44-2.86,14-5.51Z"/><path d="M349.41,28.19c25.22,0,48.27,15.91,48.6,38.17.45,30-11,44.34-38.75,59.67a230.81,230.81,0,0,1,12.16,44.49c1.26,7.55,17.59,16.39,10.25,36.5-4.43,12.13-12.61,19.54-23.31,19.54-7,0-15.15-3.2-24-10.37a70.23,70.23,0,0,1-12.62-13.48c-15.08-20.78-57.1-113.25-13.87-157.13a57.75,57.75,0,0,1,41.56-17.39m0-10v0a67.82,67.82,0,0,0-48.68,20.37c-20.88,21.19-27,54.53-17.57,96.43,7.45,33.3,22.64,62.81,30.46,73.59A80.66,80.66,0,0,0,328.05,224c10.34,8.36,20.54,12.59,30.31,12.59,14.72,0,26.64-9.52,32.7-26.11,6.94-19-2.33-31.55-7.31-38.29a37.9,37.9,0,0,1-2.53-3.67,248.15,248.15,0,0,0-9.69-38c12.12-7.47,20.28-14.77,26-23.14,7.43-11,10.78-24,10.52-41.11-.2-13.68-6.93-26.2-18.94-35.26-10.9-8.23-25-12.76-39.66-12.76Z"/><path d="M465.84,41.66c26.35,0,46.13,18.87,50.15,38.9,6.39,31.91-16.11,52.24-54.47,52.59,0,0,16.17,55.42,6.39,77.07-5.38,11.92-14.35,18.68-24.06,18.68-9.08,0-18.8-5.91-26.84-19-3.55-5.82-3.82-11.26-2.24-25.8s-37.35-106,22.84-135.46a64.06,64.06,0,0,1,28.23-7m0-10h0a73.89,73.89,0,0,0-32.62,8c-23.92,11.71-37.07,33.05-39.11,63.44-1.59,23.8,4,48.48,7.76,64.82,1.33,5.85,3,13.12,2.95,15.19-1.69,15.59-1.55,23.49,3.67,32,9.39,15.35,21.95,23.81,35.36,23.81,13.84,0,26.24-9.18,33.18-24.57,5-11,5.35-28.13,1.21-52.44-1.25-7.37-2.73-14.19-4-19.58,18.42-2.36,33.22-9.6,42.42-20.93s12.46-26.24,9.14-42.79c-2.49-12.42-9.64-24-20.13-32.7a62.6,62.6,0,0,0-39.82-14.23Z"/></g></g></svg>